<svg width="1em" height="1em" viewBox="0 0 512 512" xmlns="http://www.w3.org/2000/svg"><path d="M0 85.333h512V426.67H0z" fill="#f0f0f0"/><path d="M85.334 85.33L256 255.996V85.33zM0 426.662h85.334L256 255.996H0zm426.666 0L256 255.996v170.666zm0-341.332L256 255.996h256V85.33z"/><path d="M196.638 204.054L256 211.475l59.362-7.421v-35.618l-23.745 11.873L256 144.692l-35.617 35.617-23.745-11.873z" fill="#ffda44"/><path d="M256 345.04c-32.732 0-59.362-26.63-59.362-59.362v-59.36l22.261-22.262h74.203l22.261 22.262v59.36c-.001 32.732-26.631 59.362-59.363 59.362z" fill="#d80027"/><path d="M256 322.779c-20.458 0-37.101-16.643-37.101-37.101v-59.361h74.203v59.361c-.001 20.457-16.644 37.101-37.102 37.101z" fill="#f0f0f0"/><path d="M196.641 204.05h22.261v22.261h-22.261zm96.457 0h22.261v22.261h-22.261zm0 48.24h22.261v22.261h-22.261zm-96.457 0h22.261v22.261h-22.261zM256 322.779c-3.877 0-7.615-.6-11.13-1.709v22.908c3.608.688 7.325 1.062 11.13 1.062s7.522-.374 11.13-1.062V321.07a36.928 36.928 0 0 1-11.13 1.709zM219.395 291.7l-17.766 17.766a59.577 59.577 0 0 0 12.876 18.606l15.733-15.733c-5.614-5.426-9.525-12.599-10.843-20.639zm90.976 17.767L292.605 291.7c-1.319 8.038-5.229 15.212-10.843 20.638l15.733 15.733a59.574 59.574 0 0 0 12.876-18.604z" fill="#ffda44"/><path d="M248.579 238.683v12.367a7.421 7.421 0 0 0 14.842 0v-12.367zm0 49.468v12.367a7.421 7.421 0 0 0 14.842 0v-12.367zm22.261-24.734v12.368a7.422 7.422 0 0 0 14.842 0v-12.368zm-22.261 0v12.368a7.422 7.422 0 0 0 14.842 0v-12.368zm-22.261 0v12.368a7.422 7.422 0 0 0 14.842 0v-12.368z" fill="#0052b4"/></svg>