<svg width="1em" height="1em" viewBox="0 0 512 512" xmlns="http://www.w3.org/2000/svg"><path d="M0 85.337h512v341.326H0z" fill="#ffda44"/><path d="M0 85.337h512v113.775H0z" fill="#6da544"/><path d="M0 312.888h512v113.775H0z" fill="#d80027"/><circle cx="256" cy="256" fill="#0052b4" r="81.619"/><g fill="#ffda44"><path d="M255.982 192.796l14.735 45.346h47.757l-38.65 28.028 14.849 45.481-38.691-28.16-38.63 28.108 14.79-45.429-38.616-28.028h47.722z"/><path d="M314.748 267.286l-46.743-15.188 28.888-39.759-12.005-8.724-28.889 39.761-28.887-39.76-12.006 8.722 28.886 39.762-46.74 15.186 4.585 14.115 46.742-15.188v49.148h14.842v-49.148l46.74 15.188z"/></g></svg>