<svg width="1em" height="1em" viewBox="0 0 512 512" xmlns="http://www.w3.org/2000/svg"><path d="M512 85.337v171.665c-14.024 1.035-36.775 21.259-50.332 21.259-13.913 0-37.51-21.293-51.423-21.293s-37.498 21.293-51.411 21.293-37.51-21.293-51.423-21.293-37.498 21.293-51.411 21.293-37.498-21.293-51.411-21.293-37.51 21.293-51.423 21.293-37.498-21.293-51.411-21.293-37.51 21.293-51.423 21.293c-13.557 0-36.307-20.224-50.332-21.259V85.337z" fill="#d80027"/><path d="M315.362 255.182l-24.257 11.41 12.917 23.492-26.339-5.04-3.338 26.608L256 292.083l-18.346 19.569-3.337-26.608-26.339 5.037 12.915-23.49-24.255-11.409 24.257-11.41-12.917-23.491 26.338 5.038 3.339-26.607L256 218.281l18.346-19.569 3.337 26.607 26.34-5.038-12.915 23.492zm-14.84-103.066H267.13c0-6.146-4.984-11.13-11.13-11.13s-11.13 4.984-11.13 11.13h-33.391c0 6.147 5.355 11.13 11.501 11.13h-.371c0 6.147 4.983 11.13 11.13 11.13 0 6.147 4.983 11.13 11.13 11.13h22.261c6.146 0 11.13-4.983 11.13-11.13 6.146 0 11.13-4.983 11.13-11.13h-.371c6.148.001 11.503-4.983 11.503-11.13z" fill="#ffda44"/><path d="M512 257.002v169.661H0V257.002c14.024 1.035 36.775 21.259 50.332 21.259 13.913 0 37.51-21.293 51.423-21.293s37.498 21.293 51.411 21.293 37.51-21.293 51.423-21.293 37.498 21.293 51.411 21.293 37.498-21.293 51.411-21.293 37.51 21.293 51.423 21.293 37.498-21.293 51.411-21.293 37.51 21.293 51.423 21.293c13.557 0 36.308-20.224 50.332-21.259z" fill="#0052b4"/><path d="M0 268.206c4.437.746 12.847 5.516 19.131 9.086 10.958 6.223 21.308 12.1 31.205 12.1s20.246-5.877 31.204-12.1c6.835-3.881 16.196-9.197 20.212-9.197s13.378 5.315 20.212 9.197c10.958 6.223 21.308 12.1 31.204 12.1s20.246-5.877 31.204-12.1c6.834-3.881 16.195-9.197 20.211-9.197s13.378 5.315 20.212 9.197c10.959 6.223 21.308 12.1 31.205 12.1s20.246-5.877 31.204-12.1c6.835-3.881 16.196-9.197 20.212-9.197s13.378 5.315 20.211 9.197c10.958 6.223 21.308 12.1 31.205 12.1s20.246-5.877 31.204-12.1c6.835-3.881 16.196-9.197 20.212-9.197s13.378 5.315 20.212 9.197c10.958 6.223 21.308 12.1 31.204 12.1s20.246-5.877 31.204-12.1c6.284-3.57 14.694-8.34 19.131-9.086v-22.332c-9.57.404-19.565 6.064-30.125 12.061-6.834 3.881-16.195 9.197-20.211 9.197s-13.378-5.315-20.212-9.197c-10.958-6.223-21.308-12.1-31.204-12.1s-20.246 5.877-31.204 12.1c-6.835 3.881-16.196 9.197-20.212 9.197s-13.378-5.315-20.211-9.197c-10.958-6.223-21.308-12.1-31.204-12.1s-20.246 5.877-31.204 12.1c-6.835 3.881-16.197 9.196-20.213 9.196s-13.378-5.315-20.212-9.197c-10.958-6.223-21.308-12.1-31.204-12.1s-20.246 5.877-31.204 12.1c-6.834 3.881-16.195 9.197-20.211 9.197s-13.378-5.315-20.212-9.197c-10.958-6.223-21.308-12.1-31.204-12.1s-20.246 5.877-31.204 12.1c-6.836 3.882-16.197 9.197-20.213 9.197s-13.378-5.315-20.211-9.197C19.565 251.936 9.57 246.276 0 245.872zm461.664 54.577c-4.016 0-13.378-5.315-20.212-9.197-10.958-6.223-21.308-12.1-31.204-12.1s-20.246 5.877-31.204 12.1c-6.835 3.881-16.196 9.197-20.212 9.197s-13.378-5.315-20.211-9.197c-10.958-6.223-21.308-12.1-31.204-12.1s-20.246 5.877-31.204 12.1c-6.835 3.882-16.197 9.197-20.213 9.197s-13.378-5.315-20.212-9.197c-10.958-6.223-21.308-12.1-31.204-12.1s-20.246 5.877-31.204 12.1c-6.834 3.881-16.195 9.197-20.211 9.197s-13.378-5.315-20.212-9.197c-10.958-6.223-21.308-12.1-31.204-12.1s-20.246 5.877-31.204 12.1c-6.836 3.882-16.197 9.197-20.213 9.197s-13.378-5.315-20.211-9.197C19.565 307.588 9.57 301.929 0 301.525v22.332c4.437.746 12.847 5.516 19.131 9.086 10.958 6.224 21.308 12.101 31.205 12.101s20.246-5.877 31.204-12.1c6.835-3.881 16.196-9.197 20.212-9.197s13.378 5.315 20.212 9.197c10.958 6.223 21.308 12.1 31.204 12.1s20.246-5.877 31.204-12.1c6.834-3.881 16.195-9.197 20.211-9.197s13.378 5.315 20.212 9.197c10.959 6.223 21.308 12.1 31.205 12.1s20.246-5.877 31.204-12.1c6.835-3.881 16.196-9.197 20.212-9.197s13.378 5.315 20.211 9.197c10.958 6.223 21.308 12.1 31.205 12.1s20.246-5.877 31.204-12.1c6.835-3.881 16.196-9.197 20.212-9.197s13.378 5.315 20.212 9.197c10.958 6.223 21.308 12.1 31.204 12.1s20.246-5.877 31.204-12.1c6.284-3.57 14.694-8.34 19.131-9.086v-22.332c-9.57.404-19.565 6.064-30.125 12.061-6.833 3.881-16.193 9.196-20.21 9.196zM512 357.177c-9.57.404-19.565 6.064-30.125 12.061-6.834 3.881-16.195 9.197-20.211 9.197s-13.378-5.315-20.212-9.197c-10.958-6.223-21.308-12.1-31.204-12.1s-20.246 5.877-31.204 12.1c-6.835 3.881-16.196 9.197-20.212 9.197s-13.378-5.315-20.211-9.197c-10.958-6.223-21.308-12.1-31.204-12.1s-20.246 5.877-31.204 12.1c-6.836 3.882-16.198 9.197-20.214 9.197s-13.378-5.315-20.212-9.197c-10.958-6.223-21.308-12.1-31.204-12.1s-20.246 5.877-31.204 12.1c-6.834 3.881-16.195 9.197-20.211 9.197s-13.378-5.315-20.212-9.197c-10.958-6.223-21.308-12.1-31.204-12.1s-20.246 5.877-31.204 12.1c-6.836 3.882-16.197 9.197-20.213 9.197s-13.378-5.315-20.211-9.197C19.565 363.241 9.57 357.581 0 357.177v22.332c4.437.746 12.847 5.516 19.131 9.086 10.958 6.224 21.308 12.101 31.205 12.101s20.246-5.877 31.204-12.1c6.835-3.881 16.196-9.197 20.212-9.197s13.378 5.315 20.212 9.197c10.958 6.223 21.308 12.1 31.204 12.1s20.246-5.877 31.204-12.1c6.834-3.881 16.195-9.197 20.211-9.197s13.378 5.315 20.212 9.197c10.959 6.223 21.308 12.1 31.205 12.1s20.246-5.877 31.204-12.1c6.835-3.881 16.196-9.197 20.212-9.197s13.378 5.315 20.211 9.197c10.958 6.223 21.308 12.1 31.205 12.1s20.246-5.877 31.204-12.1c6.835-3.881 16.196-9.197 20.212-9.197s13.378 5.315 20.212 9.197c10.958 6.223 21.308 12.1 31.204 12.1s20.246-5.877 31.204-12.1c6.284-3.57 14.694-8.34 19.131-9.086v-22.333z" fill="#f0f0f0"/></svg>