<svg width="1em" height="1em" viewBox="0 0 512 512" xmlns="http://www.w3.org/2000/svg"><path d="M0 85.333h512V426.67H0z" fill="#d80027"/><path d="M11.13 96.464h489.739V415.54H11.13z" fill="#0052b4"/><path d="M131.2 255.996L256 177.554l124.8 78.442L256 334.439z" fill="#d80027"/><path d="M250.435 85.33v165.101H0v11.13h250.435v165.101h11.13V261.561H512v-11.13H261.565V85.33z" fill="#d80027"/><path d="M152.116 255.996L256 190.702l103.884 65.294L256 321.292z" fill="#f0f0f0"/><path d="M325.02 277.901l-12.366 7.78H196.641l.646-1.291 14.191-28.394 14.837 14.837H256l14.837-22.261 14.848 7.424 14.837-14.837z" fill="#6da544"/><path d="M256 211.474l3.684 11.338h11.92l-9.644 7.005 3.685 11.339-9.645-7.008-9.645 7.008 3.685-11.339-9.644-7.005h11.92z" fill="#ffda44"/></svg>