<svg width="1em" height="1em" viewBox="0 0 512 512" xmlns="http://www.w3.org/2000/svg"><path d="M0 85.331h512v341.337H0z" fill="#ffda44"/><path d="M0 85.331h512v90.579H0z"/><path d="M0 336.089h512v90.568H0z" fill="#0052b4"/><path d="M0 198.606h512v114.799H0z" fill="#a2001d"/><path d="M144.696 248.57h222.609v14.84H144.696zm29.685-29.673h163.25v14.84h-163.25z" fill="#ffda44"/><path d="M338.684 255.994S300.522 300.516 256 300.516s-44.522-44.522-44.522-44.522 0-44.522 44.522-44.522 82.684 44.522 82.684 44.522z" fill="#f0f0f0"/><path d="M256 300.516c-44.522 0-82.684-44.522-82.684-44.522s38.162-44.522 82.684-44.522"/><path d="M226.315 241.158h14.84v29.682h-14.84z" fill="#f0f0f0"/><path d="M270.837 241.158h14.84v29.682h-14.84z"/><g fill="#0052b4"><circle cx="144.696" cy="255.994" r="14.84"/><circle cx="367.304" cy="255.994" r="14.84"/></g></svg>