<svg width="1em" height="1em" viewBox="0 0 512 512" xmlns="http://www.w3.org/2000/svg"><path d="M0 85.337h512v341.326H0z" fill="#d80027"/><path d="M0 85.337h256V256H0z" fill="#0052b4"/><path d="M186.435 170.669L162.558 181.9l12.714 23.125-25.927-4.961-3.286 26.192L128 206.993l-18.06 19.263-3.285-26.192-25.927 4.96 12.714-23.125-23.877-11.23 23.877-11.231-12.714-23.125 25.927 4.96 3.286-26.192L128 134.344l18.06-19.263 3.285 26.192 25.928-4.96-12.715 23.125z" fill="#f0f0f0"/><circle cx="128" cy="170.674" fill="#0052b4" r="29.006"/><path d="M128 190.06c-10.692 0-19.391-8.7-19.391-19.391 0-10.692 8.7-19.391 19.391-19.391 10.692 0 19.391 8.7 19.391 19.391S138.692 190.06 128 190.06z" fill="#f0f0f0"/></svg>