<svg xmlns="http://www.w3.org/2000/svg" width="1em" height="1em" viewBox="0 0 512 512"><path fill="#ffda44" d="M503.2 322.8a256.3 256.3 0 0 0 0-133.6L233.7 1c-50 4.3-95.9 23-133.5 51.9L8.8 189.2a256.3 256.3 0 0 0 0 133.2l91.4 136.7c37.6 29 83.5 47.6 133.5 52z"/><path fill="#0052b4" d="M8.8 322.8A256.2 256.2 0 0 0 100.2 459V322.8zM233.7 511a256 256 0 0 0 269.4-188.2H233.8zm269.5-321.8A256 256 0 0 0 233.7 1v188.2zm-403-136.3A256.2 256.2 0 0 0 8.8 189.2h91.4z"/><path fill="#d80027" d="M509.8 222.6H200.3V6.1c-23.6 5.2-46 13.7-66.7 25v191.5H2.2a258.2 258.2 0 0 0 0 66.8h131.4v191.5a254.3 254.3 0 0 0 66.7 25V289.4h309.5a258.6 258.6 0 0 0 0-66.8z"/></svg>