<svg xmlns="http://www.w3.org/2000/svg" width="1em" height="1em" viewBox="0 0 512 512"><path fill="#d80027" d="M0 256a256 256 0 0 1 512 0c-11.1 0-256 33.4-256 33.4z"/><path d="M512 256a256 256 0 0 1-512 0"/><g fill="#ffda44"><path d="M220.9 203.6l21.7 15.8-8.3 25.5L256 229l21.7 15.7-8.3-25.5 21.7-15.7h-26.8L256 178l-8.3 25.5z"/><path d="M320 145.1a127.2 127.2 0 0 0-64-17v33.3A94.7 94.7 0 1 1 208.7 338a94 94 0 0 1-31.6-29.8l-27.9 18.4a128.1 128.1 0 0 0 217.6-6.5 128.1 128.1 0 0 0-46.8-175z"/><path d="M182.2 233.7a33.4 33.4 0 0 0 13.3 45.4l108.4 59.2c-7.4 13.5-3.4 30 10 37.3l29.3 16a27.8 27.8 0 0 0 37.8-11l16-29.3z"/></g></svg>