<svg height="1em" viewBox="0 0 512 512" width="1em" xmlns="http://www.w3.org/2000/svg"><circle cx="256" cy="256" fill="#f0f0f0" r="256"/><path d="m411.876 52.902c-91.652-70.526-220.1-70.526-311.752-.001l155.876 155.876zm-155.878 250.322-155.874 155.874c91.652 70.526 220.1 70.526 311.752 0l-155.876-155.876z" fill="#d80027"/><path d="m208.777 256-155.875-155.876c-70.526 91.652-70.526 220.1 0 311.752zm94.447 0 155.874 155.876c70.526-91.652 70.526-220.1 0-311.752z" fill="#6da544"/><circle cx="256" cy="256" fill="#f0f0f0" r="111.304"/><path d="m256 178.087 9.639 16.696h19.279l-9.64 16.695 9.64 16.696h-19.279l-9.639 16.696-9.639-16.696h-19.278l9.639-16.696-9.639-16.695h19.278zm-48.995 77.913 9.639 16.696h19.278l-9.639 16.695 9.639 16.696h-19.278l-9.639 16.696-9.64-16.696h-19.278l9.639-16.696-9.639-16.695h19.278zm97.991 0 9.639 16.696h19.278l-9.639 16.695 9.639 16.696h-19.278l-9.639 16.696-9.64-16.696h-19.278l9.639-16.696-9.639-16.695h19.278z" fill="#d80027"/></svg>