<svg width="1em" height="1em" viewBox="0 0 512 512" xmlns="http://www.w3.org/2000/svg"><circle cx="256" cy="256" fill="#ffda44" r="256"/><path d="M111.713 44.522C152.798 16.436 202.476 0 256 0s103.202 16.436 144.287 44.522L256 55.652z" fill="#a2001d"/><path d="M256 256l-16.338-16.338-4.338 7.771z" fill="#0052b4"/><g fill="#496e2d"><path d="M74.98 74.98c-99.974 99.974-99.974 262.065 0 362.04L256 256z"/><path d="M437.02 74.98c99.974 99.974 99.974 262.065 0 362.04L256 256z"/></g><circle cx="256" cy="256" fill="#a2001d" r="89.043"/><g fill="#ffda44"><path d="M255.999 166.957l19.959 61.429h64.598l-52.258 37.973 19.959 61.432-52.258-37.966-52.26 37.966 19.963-61.432-52.258-37.973h64.594zM256 0l-.086.002h.171L256 0z"/></g><g fill="#a2001d"><path d="M256.086 0h-.171C185.262.023 121.301 28.666 74.994 74.968h362.013C390.699 28.666 326.738.023 256.086 0zM74.995 437.033C121.321 483.352 185.315 512 256 512s134.679-28.648 181.005-74.967z"/></g><g fill="#ffda44"><path d="M256 27.826l4.145 12.754h13.41l-10.849 7.883 4.145 12.754L256 53.335l-10.849 7.882 4.145-12.754-10.851-7.883h13.41zm-62.077 0l4.145 12.754h13.41l-10.849 7.883 4.145 12.754-10.851-7.882-10.848 7.882 4.144-12.754-10.851-7.883h13.41zm124.154 0l4.145 12.754h13.41l-10.849 7.883 4.145 12.754-10.851-7.882-10.849 7.882 4.145-12.754-10.851-7.883h13.41zM256 450.783l4.145 12.754h13.41l-10.849 7.883 4.145 12.754L256 476.291l-10.849 7.883 4.145-12.754-10.851-7.883h13.41zm-62.077 0l4.145 12.754h13.41l-10.849 7.883 4.145 12.754-10.851-7.883-10.848 7.883 4.144-12.754-10.851-7.883h13.41zm124.154 0l4.145 12.754h13.41l-10.849 7.883 4.145 12.754-10.851-7.883-10.849 7.883 4.145-12.754-10.851-7.883h13.41zM78.003 251.772c6.575 10.389 3.485 24.14-6.904 30.716-10.388 6.576-24.14 3.486-30.716-6.903-11.905-18.808-5.002-49.525-5.002-49.525s30.716 6.903 42.622 25.712z"/></g><circle cx="65.146" cy="273.085" fill="#a2001d" r="11.13"/></svg>