<svg width="1em" height="1em" viewBox="0 0 512 512" xmlns="http://www.w3.org/2000/svg"><path d="M512 256c0 141.384-114.616 256-256 256S0 397.384 0 256 256 0 256 0s256 114.616 256 256z" fill="#a2001d"/><path d="M0 256C0 114.616 114.616 0 256 0s256 114.616 256 256" fill="#0052b4"/><path d="M345.043 322.783L256 311.652l-89.043 11.131V189.217h178.086z" fill="#f0f0f0"/><circle cx="256" cy="267.13" fill="#0052b4" r="44.522"/><circle cx="256" cy="267.13" fill="#a2001d" r="22.261"/><path d="M222.609 211.478h66.782L256 244.87z" fill="#6da544"/><path d="M244.87 233.739h22.261v66.783H244.87z" fill="#ffda44"/><path d="M291.617 293.843h-71.236l-53.424 28.94h178.086z" fill="#6da544"/></svg>