<svg height="1em" viewBox="0 0 512 512" width="1em" xmlns="http://www.w3.org/2000/svg"><circle cx="256" cy="256" fill="#338af3" r="256"/><path d="m122.435 278.261h267.13v33.391h-267.13z" fill="#818085"/><path d="m166.957 178.087 89.043 11.132 89.043-11.132v-53.426l-35.617 17.809-53.426-53.427-53.426 53.427-35.617-17.809z" fill="#ffda44"/><path d="m144.696 345.045h-33.392v-61.218l11.131-16.697-11.131-16.695v-38.956h33.392zm256 0h-33.392v-133.566h33.392v38.955l-11.131 16.976 11.131 16.419z" fill="#f0f0f0"/><path d="m111.304 250.435h289.391v33.391h-289.391z" fill="#acabb1"/><path d="m256 389.565c-49.099 0-89.043-39.945-89.043-89.043v-122.434h178.087v122.434c-.001 49.098-39.945 89.043-89.044 89.043z" fill="#f0f0f0"/><path d="m256 356.174c-30.687 0-55.652-24.966-55.652-55.652v-89.042h111.304v89.042c0 30.686-24.965 55.652-55.652 55.652z" fill="#0052b4"/><path d="m166.957 178.087h33.391v33.391h-33.391zm144.695 0h33.391v33.391h-33.391zm0 72.348h33.391v33.391h-33.391zm-144.695 0h33.391v33.391h-33.391zm72.347-72.348h33.391v33.391h-33.391zm16.696 178.087c-5.816 0-11.423-.9-16.696-2.562v34.361c5.412 1.032 10.988 1.593 16.696 1.593s11.284-.561 16.696-1.593v-34.361a55.476 55.476 0 0 1 -16.696 2.562zm-54.908-46.618-26.648 26.648a89.353 89.353 0 0 0 19.314 27.908l23.6-23.6c-8.422-8.137-14.289-18.897-16.266-30.956zm136.464 26.65-26.648-26.648c-1.978 12.058-7.844 22.817-16.265 30.957l23.6 23.6a89.4 89.4 0 0 0 19.313-27.909z" fill="#d80027"/></svg>