<svg width="1em" height="1em" viewBox="0 0 512 512" xmlns="http://www.w3.org/2000/svg"><circle cx="256" cy="256" fill="#ffda44" r="256"/><g fill="#d80027"><path d="M294.932 509.057c41.636-6.352 79.962-22.748 112.456-46.618L256 256zM217.067 2.943C175.432 9.295 137.106 25.691 104.61 49.56L256 256zM104.61 462.439c32.494 23.869 70.82 40.265 112.455 46.619L256 256zM49.56 104.61C25.69 137.106 9.296 175.431 2.943 217.067L256 256zM2.943 294.932c6.352 41.636 22.748 79.962 46.618 112.456L256 256zm506.114-77.865c-6.353-41.635-22.748-79.961-46.618-112.456L256 256z"/><path d="M407.388 49.559C374.893 25.69 336.568 9.295 294.932 2.943L256 256zm55.053 357.83c23.869-32.495 40.264-70.822 46.618-112.456L256 256z"/><circle cx="256" cy="256" r="89.043"/></g><circle cx="256" cy="256" fill="#ffda44" r="66.783"/></svg>