<svg height="1em" viewBox="0 0 512 512" width="1em" xmlns="http://www.w3.org/2000/svg"><circle cx="256" cy="256" fill="#f0f0f0" r="256"/><path d="m345.043 256c0 22.261-39.866 77.913-89.043 77.913s-89.043-55.652-89.043-77.913c0-49.178 39.866-89.043 89.043-89.043s89.043 39.865 89.043 89.043z" fill="#d80027"/><path d="m345.043 256c0 49.178-39.866 89.043-89.043 89.043s-89.043-39.865-89.043-89.043" fill="#0052b4"/><path d="m350.375 334.708 23.607-23.608 15.739 15.739-23.608 23.607z"/><path d="m311.017 374.055 23.608-23.607 15.738 15.738-23.607 23.608z"/><path d="m397.593 381.92 23.608-23.607 15.738 15.739-23.607 23.607z"/><path d="m358.237 421.274 23.607-23.607 15.739 15.738-23.607 23.608z"/><path d="m373.983 358.316 23.607-23.607 15.739 15.738-23.608 23.608z"/><path d="m334.636 397.663 23.608-23.607 15.738 15.738-23.607 23.607z"/><path d="m397.698 177.335-62.954-62.953 15.739-15.739 62.953 62.954z"/><path d="m334.732 161.603-23.607-23.607 15.738-15.738 23.607 23.607z"/><path d="m374.078 200.959-23.607-23.608 15.738-15.737 23.607 23.607z"/><path d="m381.943 114.38-23.608-23.608 15.739-15.738 23.606 23.606z"/><path d="m421.31 153.74-23.607-23.607 15.738-15.739 23.608 23.608z"/><path d="m90.754 358.272 62.954 62.953-15.739 15.739-62.953-62.954z"/><path d="m153.705 373.998 23.607 23.607-15.738 15.738-23.607-23.607z"/><path d="m114.355 334.66 23.608 23.607-15.739 15.738-23.607-23.607z"/><path d="m137.966 311.045 62.953 62.955-15.739 15.738-62.953-62.953z"/><path d="m153.701 90.724-62.953 62.953-15.739-15.739 62.954-62.953z"/><path d="m177.309 114.328-62.954 62.954-15.738-15.739 62.953-62.953z"/><path d="m200.939 137.95-62.954 62.954-15.738-15.738 62.954-62.954z"/></svg>